<svg width="12" height="12" viewBox="0 0 12 12" fill="none" xmlns="http://www.w3.org/2000/svg">
<path d="M4.125 5.24951C5.5725 5.24951 6.75 6.42701 6.75 7.87451C6.75 9.32201 5.5725 10.4995 4.125 10.4995C2.6775 10.4995 1.5 9.32201 1.5 7.87451C1.5 6.42701 2.6775 5.24951 4.125 5.24951ZM4.125 3.74951C1.845 3.74951 0 5.59451 0 7.87451C0 10.1545 1.845 11.9995 4.125 11.9995C6.405 11.9995 8.25 10.1545 8.25 7.87451C8.25 7.00451 7.98 6.20201 7.5225 5.53451L10.5 2.56451V4.49951H12V-0.000488281L7.5 -0.000488281V1.49951L9.435 1.49951L6.4575 4.47701C5.7975 4.01951 4.995 3.74951 4.125 3.74951Z" fill="black" fill-opacity="0.7"/>
</svg>
