<svg width="10" height="13" viewBox="0 0 10 13" fill="none" xmlns="http://www.w3.org/2000/svg">
<path d="M9.125 4.125C9.125 1.845 7.28 0 5 0C2.72 0 0.875 1.845 0.875 4.125C0.875 6.15 2.33 7.8225 4.25 8.175L4.25 9.75H2.75L2.75 11.25H4.25V12.75H5.75L5.75 11.25H7.25V9.75H5.75V8.175C7.67 7.8225 9.125 6.15 9.125 4.125ZM2.375 4.125C2.375 2.6775 3.5525 1.5 5 1.5C6.4475 1.5 7.625 2.6775 7.625 4.125C7.625 5.5725 6.4475 6.75 5 6.75C3.5525 6.75 2.375 5.5725 2.375 4.125Z" fill="black" fill-opacity="0.7"/>
</svg>
