<svg width="24" height="37" viewBox="0 0 24 37" fill="none" xmlns="http://www.w3.org/2000/svg">
<path d="M12.768 31.4541C12.3682 31.9335 11.6318 31.9335 11.232 31.4541L4.36812 23.2238C3.82498 22.5726 4.28808 21.5833 5.13609 21.5833L6.99059 21.5833C7.54264 21.5833 7.99026 21.136 7.99059 20.5839L7.99941 5.62441C7.99974 5.07236 8.44736 4.625 8.99941 4.625L15 4.625C15.5523 4.625 16 5.07272 16 5.625L16 20.5833C16 21.1356 16.4477 21.5833 17 21.5833L18.8639 21.5833C19.7119 21.5833 20.175 22.5726 19.6319 23.2238L12.768 31.4541Z" fill="#173EA5"/>
</svg>
