<svg width="16" height="16" viewBox="0 0 16 16" fill="none" xmlns="http://www.w3.org/2000/svg">
<g clip-path="url(#clip0_1471_13372)">
<path d="M7.9987 14.6668C11.6807 14.6668 14.6654 11.6822 14.6654 8.00016C14.6654 4.31816 11.6807 1.3335 7.9987 1.3335C4.3167 1.3335 1.33203 4.31816 1.33203 8.00016C1.33203 11.6822 4.3167 14.6668 7.9987 14.6668Z" stroke="black" stroke-opacity="0.6" stroke-linecap="round" stroke-linejoin="round"/>
<path d="M8 10C8.53043 10 9.03914 9.78929 9.41421 9.41421C9.78929 9.03914 10 8.53043 10 8C10 7.46957 9.78929 6.96086 9.41421 6.58579C9.03914 6.21071 8.53043 6 8 6C7.46957 6 6.96086 6.21071 6.58579 6.58579C6.21071 6.96086 6 7.46957 6 8C6 8.53043 6.21071 9.03914 6.58579 9.41421C6.96086 9.78929 7.46957 10 8 10V10Z" stroke="black" stroke-opacity="0.6" stroke-linecap="round" stroke-linejoin="round"/>
<path d="M1.33203 8H5.9987M9.9987 8H14.6654" stroke="black" stroke-opacity="0.6"/>
</g>
<defs>
<clipPath id="clip0_1471_13372">
<rect width="16" height="16" fill="white"/>
</clipPath>
</defs>
</svg>
