<svg width="16" height="16" viewBox="0 0 16 16" fill="none" xmlns="http://www.w3.org/2000/svg">
<path d="M13.125 13.062H2.875C2.80625 13.062 2.75 13.1183 2.75 13.187L2.75 14.1245C2.75 14.1933 2.80625 14.2495 2.875 14.2495H13.125C13.1938 14.2495 13.25 14.1933 13.25 14.1245V13.187C13.25 13.1183 13.1938 13.062 13.125 13.062ZM13.125 1.74951L2.875 1.74951C2.80625 1.74951 2.75 1.80576 2.75 1.87451V2.81201C2.75 2.88076 2.80625 2.93701 2.875 2.93701L13.125 2.93701C13.1938 2.93701 13.25 2.88076 13.25 2.81201V1.87451C13.25 1.80576 13.1938 1.74951 13.125 1.74951ZM9.54375 5.90576C9.6375 5.90576 9.69063 5.79639 9.63281 5.72295L8.05781 3.7292C8.04739 3.71571 8.03401 3.70478 8.01871 3.69727C8.0034 3.68975 7.98658 3.68585 7.96953 3.68585C7.95248 3.68585 7.93566 3.68975 7.92036 3.69727C7.90505 3.70478 7.89167 3.71571 7.88125 3.7292L6.30625 5.72295C6.29313 5.73963 6.28497 5.75967 6.28271 5.78077C6.28046 5.80188 6.28419 5.82319 6.29348 5.84227C6.30278 5.86135 6.31726 5.87743 6.33527 5.88865C6.35328 5.89988 6.37409 5.90581 6.39531 5.90576H7.4375L7.4375 10.0933H6.45625C6.3625 10.0933 6.30938 10.2026 6.36719 10.2761L7.94219 12.2683C7.9875 12.3261 8.075 12.3261 8.11875 12.2683L9.69375 10.2761C9.75156 10.2026 9.7 10.0933 9.60469 10.0933H8.5625V5.90576H9.54375Z" fill="black" fill-opacity="0.6"/>
</svg>
